<svg width="1280" height="832" viewBox="0 0 1280 832" fill="none" xmlns="http://www.w3.org/2000/svg">
<path d="M406.995 849.224C414.822 783.815 458.78 728.373 520.681 705.838L955.275 547.622C989.576 535.135 1021.31 516.493 1048.92 492.611L1286.37 287.202C1305.22 270.896 1327.5 259.04 1351.55 252.513C1457.77 223.691 1562.15 304.251 1561.19 414.307L1558.66 701.861C1557.28 858.788 1435.19 988.135 1278.6 998.561L592.043 1044.27C482.893 1051.54 393.997 957.84 406.995 849.224Z" fill="#3526E0" fill-opacity="0.87"/>
<path d="M211.437 798.442C217.312 719.306 267.865 650.475 341.619 621.194L916.418 392.991C949.049 380.036 979.153 361.453 1005.36 338.089L1310.34 66.1834C1333.81 45.2628 1361.51 29.6405 1391.55 20.3787C1528.44 -21.8244 1668.32 76.6199 1674.79 219.724L1691.75 594.532C1698.88 751.964 1582.97 888.07 1426.42 906.119L441.81 1019.63C312.626 1034.52 201.81 928.125 211.437 798.442Z" fill="#9A91FF" fill-opacity="0.87"/>
<path d="M891.117 49.3497C883.29 114.758 839.332 170.201 777.431 192.736L342.837 350.951C308.536 363.439 276.802 382.081 249.195 405.962L11.7386 611.372C-7.11131 627.678 -29.3886 639.533 -53.4426 646.06C-159.662 674.883 -264.041 594.323 -263.073 484.267L-260.546 196.713C-259.167 39.7853 -137.075 -89.5616 19.5119 -99.9874L706.069 -145.7C815.219 -152.967 904.115 -59.2661 891.117 49.3497Z" fill="#3526E0"/>
<path d="M677.513 97.3731C665.6 104.732 652.47 109.909 638.74 112.66L422.189 156.055C355.087 169.502 294.599 205.488 250.761 258.041L12.7614 543.363C-28.7297 593.103 -88.1609 624.477 -152.637 630.677C-304.231 645.255 -432.53 520.014 -421.614 368.113L-405.706 146.738C-394.3 -11.969 -260.972 -134.165 -101.874 -131.723L617.397 -120.686C735.143 -118.879 777.699 35.485 677.513 97.3731Z" fill="#9A91FF"/>
</svg>
