<svg width="654" height="72" viewBox="0 0 654 72" fill="none" xmlns="http://www.w3.org/2000/svg">
<mask id="path-1-outside-1_8_34" maskUnits="userSpaceOnUse" x="-4" y="-4" width="662" height="80" fill="black">
<rect fill="white" x="-4" y="-4" width="662" height="80"/>
<path d="M0.1 30V0.599998H17.74V3.54H20.68V27.06H17.74V30H0.1ZM11.86 24.12V6.48H8.92V24.12H11.86ZM24.8734 30V0.599998H33.6934V30H24.8734ZM37.8754 18.24V0.599998H58.4554V6.48H46.6954V12.36H58.4554V30H37.8754V24.12H49.6354V18.24H37.8754ZM80.2888 24.12V30H62.6488V0.599998H80.2888V6.48H71.4688V24.12H80.2888ZM84.4691 30V0.599998H105.049V30H84.4691ZM96.2291 24.12V6.48H93.2891V24.12H96.2291ZM109.243 18.24V0.599998H118.063V12.36H121.003V0.599998H129.823V18.24H126.883V24.12H123.943V30H115.123V24.12H112.183V18.24H109.243ZM142.836 18.24V24.12H154.596V30H134.016V0.599998H154.596V6.48H142.836V12.36H151.656V18.24H142.836ZM158.789 30V0.599998H179.369V12.36H176.429V15.3H179.369V30H170.549V18.24H167.609V30H158.789ZM170.549 12.36V6.48H167.609V12.36H170.549ZM206.671 6.48V30H197.851V6.48H191.971V0.599998H212.551V6.48H206.671ZM216.745 30V0.599998H225.565V12.36H228.505V0.599998H237.325V30H228.505V18.24H225.565V30H216.745ZM250.338 18.24V24.12H262.098V30H241.518V0.599998H262.098V6.48H250.338V12.36H259.158V18.24H250.338ZM289.4 6.48V30H280.58V6.48H274.7V0.599998H295.28V6.48H289.4ZM299.473 30V0.599998H320.053V30H311.233V18.24H308.293V30H299.473ZM311.233 12.36V6.48H308.293V12.36H311.233ZM324.246 18.24V0.599998H344.826V6.48H333.066V12.36H344.826V30H324.246V24.12H336.006V18.24H324.246ZM363.72 6.48V30H354.9V6.48H349.02V0.599998H369.6V6.48H363.72ZM382.613 18.24V24.12H394.373V30H373.793V0.599998H394.373V6.48H382.613V12.36H391.433V18.24H382.613ZM406.975 30V0.599998H427.555V30H406.975ZM418.735 24.12V6.48H415.795V24.12H418.735ZM440.568 18.24V30H431.748V0.599998H452.328V6.48H440.568V12.36H449.388V18.24H440.568ZM473.75 18.24V30H464.93V0.599998H473.75V6.48H476.69V12.36H479.63V0.599998H488.45V30H479.63V24.12H476.69V18.24H473.75ZM492.657 30V0.599998H513.237V30H504.417V18.24H501.477V30H492.657ZM504.417 12.36V6.48H501.477V12.36H504.417ZM532.13 6.48V30H523.31V6.48H517.43V0.599998H538.01V6.48H532.13ZM542.204 30V0.599998H551.024V24.12H553.964V0.599998H562.784V30H542.204ZM566.977 30V0.599998H587.557V12.36H584.617V15.3H587.557V30H578.737V18.24H575.797V30H566.977ZM578.737 12.36V6.48H575.797V12.36H578.737ZM600.57 18.24V24.12H612.33V30H591.75V0.599998H612.33V6.48H600.57V12.36H609.39V18.24H600.57ZM616.524 9.42V0.599998H625.344V15.3H619.464V9.42H616.524ZM632.479 18.24V0.599998H653.059V6.48H641.299V12.36H653.059V30H632.479V24.12H644.239V18.24H632.479ZM0.1 60.24V42.6H20.68V48.48H8.92V54.36H20.68V72H0.1V66.12H11.86V60.24H0.1ZM33.6934 42.6V57.3H36.6334V51.42H42.5134V57.3H45.4534V42.6H54.2734V66.12H51.3334V72H42.5134V63.18H36.6334V72H27.8134V66.12H24.8734V42.6H33.6934ZM67.2852 60.24V66.12H79.0452V72H58.4652V42.6H79.0452V48.48H67.2852V54.36H76.1052V60.24H67.2852ZM92.0587 60.24V66.12H103.819V72H83.2387V42.6H103.819V48.48H92.0587V54.36H100.879V60.24H92.0587ZM122.712 48.48V72H113.892V48.48H108.012V42.6H128.592V48.48H122.712ZM141.606 60.24V66.12H153.366V72H132.786V42.6H153.366V48.48H141.606V54.36H150.426V60.24H141.606ZM157.559 60.24V42.6H178.139V48.48H166.379V54.36H178.139V72H157.559V66.12H169.319V60.24H157.559ZM197.032 48.48V72H188.212V48.48H182.332V42.6H202.912V48.48H197.032ZM224.334 60.24V72H215.514V42.6H224.334V48.48H227.274V54.36H233.154V48.48H236.094V42.6H244.914V72H236.094V60.24H233.154V66.12H227.274V60.24H224.334ZM249.106 72V42.6H269.686V72H260.866V60.24H257.926V72H249.106ZM260.866 54.36V48.48H257.926V54.36H260.866ZM282.699 60.24V72H273.879V42.6H282.699V48.48H285.639V54.36H288.579V42.6H297.399V72H288.579V66.12H285.639V60.24H282.699ZM313.366 66.12V54.36H322.186V72H301.606V42.6H322.186V48.48H310.426V66.12H313.366ZM326.379 72V42.6H346.959V72H326.379ZM338.139 66.12V48.48H335.199V66.12H338.139ZM359.973 60.24V66.12H371.733V72H351.153V42.6H371.733V48.48H359.973V54.36H368.793V60.24H359.973ZM375.926 60.24V42.6H396.506V48.48H384.746V54.36H396.506V72H375.926V66.12H387.686V60.24H375.926Z"/>
</mask>
<path d="M0.1 30V0.599998H17.74V3.54H20.68V27.06H17.74V30H0.1ZM11.86 24.12V6.48H8.92V24.12H11.86ZM24.8734 30V0.599998H33.6934V30H24.8734ZM37.8754 18.24V0.599998H58.4554V6.48H46.6954V12.36H58.4554V30H37.8754V24.12H49.6354V18.24H37.8754ZM80.2888 24.12V30H62.6488V0.599998H80.2888V6.48H71.4688V24.12H80.2888ZM84.4691 30V0.599998H105.049V30H84.4691ZM96.2291 24.12V6.48H93.2891V24.12H96.2291ZM109.243 18.24V0.599998H118.063V12.36H121.003V0.599998H129.823V18.24H126.883V24.12H123.943V30H115.123V24.12H112.183V18.24H109.243ZM142.836 18.24V24.12H154.596V30H134.016V0.599998H154.596V6.48H142.836V12.36H151.656V18.24H142.836ZM158.789 30V0.599998H179.369V12.36H176.429V15.3H179.369V30H170.549V18.24H167.609V30H158.789ZM170.549 12.36V6.48H167.609V12.36H170.549ZM206.671 6.48V30H197.851V6.48H191.971V0.599998H212.551V6.48H206.671ZM216.745 30V0.599998H225.565V12.36H228.505V0.599998H237.325V30H228.505V18.24H225.565V30H216.745ZM250.338 18.24V24.12H262.098V30H241.518V0.599998H262.098V6.48H250.338V12.36H259.158V18.24H250.338ZM289.4 6.48V30H280.58V6.48H274.7V0.599998H295.28V6.48H289.4ZM299.473 30V0.599998H320.053V30H311.233V18.24H308.293V30H299.473ZM311.233 12.36V6.48H308.293V12.36H311.233ZM324.246 18.24V0.599998H344.826V6.48H333.066V12.36H344.826V30H324.246V24.12H336.006V18.24H324.246ZM363.72 6.48V30H354.9V6.48H349.02V0.599998H369.6V6.48H363.72ZM382.613 18.24V24.12H394.373V30H373.793V0.599998H394.373V6.48H382.613V12.36H391.433V18.24H382.613ZM406.975 30V0.599998H427.555V30H406.975ZM418.735 24.12V6.48H415.795V24.12H418.735ZM440.568 18.24V30H431.748V0.599998H452.328V6.48H440.568V12.36H449.388V18.24H440.568ZM473.75 18.24V30H464.93V0.599998H473.75V6.48H476.69V12.36H479.63V0.599998H488.45V30H479.63V24.12H476.69V18.24H473.75ZM492.657 30V0.599998H513.237V30H504.417V18.24H501.477V30H492.657ZM504.417 12.36V6.48H501.477V12.36H504.417ZM532.13 6.48V30H523.31V6.48H517.43V0.599998H538.01V6.48H532.13ZM542.204 30V0.599998H551.024V24.12H553.964V0.599998H562.784V30H542.204ZM566.977 30V0.599998H587.557V12.36H584.617V15.3H587.557V30H578.737V18.24H575.797V30H566.977ZM578.737 12.36V6.48H575.797V12.36H578.737ZM600.57 18.24V24.12H612.33V30H591.75V0.599998H612.33V6.48H600.57V12.36H609.39V18.24H600.57ZM616.524 9.42V0.599998H625.344V15.3H619.464V9.42H616.524ZM632.479 18.24V0.599998H653.059V6.48H641.299V12.36H653.059V30H632.479V24.12H644.239V18.24H632.479ZM0.1 60.24V42.6H20.68V48.48H8.92V54.36H20.68V72H0.1V66.12H11.86V60.24H0.1ZM33.6934 42.6V57.3H36.6334V51.42H42.5134V57.3H45.4534V42.6H54.2734V66.12H51.3334V72H42.5134V63.18H36.6334V72H27.8134V66.12H24.8734V42.6H33.6934ZM67.2852 60.24V66.12H79.0452V72H58.4652V42.6H79.0452V48.48H67.2852V54.36H76.1052V60.24H67.2852ZM92.0587 60.24V66.12H103.819V72H83.2387V42.6H103.819V48.48H92.0587V54.36H100.879V60.24H92.0587ZM122.712 48.48V72H113.892V48.48H108.012V42.6H128.592V48.48H122.712ZM141.606 60.24V66.12H153.366V72H132.786V42.6H153.366V48.48H141.606V54.36H150.426V60.24H141.606ZM157.559 60.24V42.6H178.139V48.48H166.379V54.36H178.139V72H157.559V66.12H169.319V60.24H157.559ZM197.032 48.48V72H188.212V48.48H182.332V42.6H202.912V48.48H197.032ZM224.334 60.24V72H215.514V42.6H224.334V48.48H227.274V54.36H233.154V48.48H236.094V42.6H244.914V72H236.094V60.24H233.154V66.12H227.274V60.24H224.334ZM249.106 72V42.6H269.686V72H260.866V60.24H257.926V72H249.106ZM260.866 54.36V48.48H257.926V54.36H260.866ZM282.699 60.24V72H273.879V42.6H282.699V48.48H285.639V54.36H288.579V42.6H297.399V72H288.579V66.12H285.639V60.24H282.699ZM313.366 66.12V54.36H322.186V72H301.606V42.6H322.186V48.48H310.426V66.12H313.366ZM326.379 72V42.6H346.959V72H326.379ZM338.139 66.12V48.48H335.199V66.12H338.139ZM359.973 60.24V66.12H371.733V72H351.153V42.6H371.733V48.48H359.973V54.36H368.793V60.24H359.973ZM375.926 60.24V42.6H396.506V48.48H384.746V54.36H396.506V72H375.926V66.12H387.686V60.24H375.926Z" fill="#FFE600"/>
<path d="M0.1 30H-3.9V34H0.1V30ZM0.1 0.599998V-3.4H-3.9V0.599998H0.1ZM17.74 0.599998H21.74V-3.4H17.74V0.599998ZM17.74 3.54H13.74V7.54H17.74V3.54ZM20.68 3.54H24.68V-0.460002H20.68V3.54ZM20.68 27.06V31.06H24.68V27.06H20.68ZM17.74 27.06V23.06H13.74V27.06H17.74ZM17.74 30V34H21.74V30H17.74ZM11.86 24.12V28.12H15.86V24.12H11.86ZM11.86 6.48H15.86V2.48H11.86V6.48ZM8.92 6.48V2.48H4.92V6.48H8.92ZM8.92 24.12H4.92V28.12H8.92V24.12ZM4.1 30V0.599998H-3.9V30H4.1ZM0.1 4.6H17.74V-3.4H0.1V4.6ZM13.74 0.599998V3.54H21.74V0.599998H13.74ZM17.74 7.54H20.68V-0.460002H17.74V7.54ZM16.68 3.54V27.06H24.68V3.54H16.68ZM20.68 23.06H17.74V31.06H20.68V23.06ZM13.74 27.06V30H21.74V27.06H13.74ZM17.74 26H0.1V34H17.74V26ZM15.86 24.12V6.48H7.86V24.12H15.86ZM11.86 2.48H8.92V10.48H11.86V2.48ZM4.92 6.48V24.12H12.92V6.48H4.92ZM8.92 28.12H11.86V20.12H8.92V28.12ZM24.8734 30H20.8734V34H24.8734V30ZM24.8734 0.599998V-3.4H20.8734V0.599998H24.8734ZM33.6934 0.599998H37.6934V-3.4H33.6934V0.599998ZM33.6934 30V34H37.6934V30H33.6934ZM28.8734 30V0.599998H20.8734V30H28.8734ZM24.8734 4.6H33.6934V-3.4H24.8734V4.6ZM29.6934 0.599998V30H37.6934V0.599998H29.6934ZM33.6934 26H24.8734V34H33.6934V26ZM37.8754 18.24H33.8754V22.24H37.8754V18.24ZM37.8754 0.599998V-3.4H33.8754V0.599998H37.8754ZM58.4554 0.599998H62.4554V-3.4H58.4554V0.599998ZM58.4554 6.48V10.48H62.4554V6.48H58.4554ZM46.6954 6.48V2.48H42.6954V6.48H46.6954ZM46.6954 12.36H42.6954V16.36H46.6954V12.36ZM58.4554 12.36H62.4554V8.36H58.4554V12.36ZM58.4554 30V34H62.4554V30H58.4554ZM37.8754 30H33.8754V34H37.8754V30ZM37.8754 24.12V20.12H33.8754V24.12H37.8754ZM49.6354 24.12V28.12H53.6354V24.12H49.6354ZM49.6354 18.24H53.6354V14.24H49.6354V18.24ZM41.8754 18.24V0.599998H33.8754V18.24H41.8754ZM37.8754 4.6H58.4554V-3.4H37.8754V4.6ZM54.4554 0.599998V6.48H62.4554V0.599998H54.4554ZM58.4554 2.48H46.6954V10.48H58.4554V2.48ZM42.6954 6.48V12.36H50.6954V6.48H42.6954ZM46.6954 16.36H58.4554V8.36H46.6954V16.36ZM54.4554 12.36V30H62.4554V12.36H54.4554ZM58.4554 26H37.8754V34H58.4554V26ZM41.8754 30V24.12H33.8754V30H41.8754ZM37.8754 28.12H49.6354V20.12H37.8754V28.12ZM53.6354 24.12V18.24H45.6354V24.12H53.6354ZM49.6354 14.24H37.8754V22.24H49.6354V14.24ZM80.2888 24.12H84.2888V20.12H80.2888V24.12ZM80.2888 30V34H84.2888V30H80.2888ZM62.6488 30H58.6488V34H62.6488V30ZM62.6488 0.599998V-3.4H58.6488V0.599998H62.6488ZM80.2888 0.599998H84.2888V-3.4H80.2888V0.599998ZM80.2888 6.48V10.48H84.2888V6.48H80.2888ZM71.4688 6.48V2.48H67.4688V6.48H71.4688ZM71.4688 24.12H67.4688V28.12H71.4688V24.12ZM76.2888 24.12V30H84.2888V24.12H76.2888ZM80.2888 26H62.6488V34H80.2888V26ZM66.6488 30V0.599998H58.6488V30H66.6488ZM62.6488 4.6H80.2888V-3.4H62.6488V4.6ZM76.2888 0.599998V6.48H84.2888V0.599998H76.2888ZM80.2888 2.48H71.4688V10.48H80.2888V2.48ZM67.4688 6.48V24.12H75.4688V6.48H67.4688ZM71.4688 28.12H80.2888V20.12H71.4688V28.12ZM84.4691 30H80.4691V34H84.4691V30ZM84.4691 0.599998V-3.4H80.4691V0.599998H84.4691ZM105.049 0.599998H109.049V-3.4H105.049V0.599998ZM105.049 30V34H109.049V30H105.049ZM96.2291 24.12V28.12H100.229V24.12H96.2291ZM96.2291 6.48H100.229V2.48H96.2291V6.48ZM93.2891 6.48V2.48H89.2891V6.48H93.2891ZM93.2891 24.12H89.2891V28.12H93.2891V24.12ZM88.4691 30V0.599998H80.4691V30H88.4691ZM84.4691 4.6H105.049V-3.4H84.4691V4.6ZM101.049 0.599998V30H109.049V0.599998H101.049ZM105.049 26H84.4691V34H105.049V26ZM100.229 24.12V6.48H92.2291V24.12H100.229ZM96.2291 2.48H93.2891V10.48H96.2291V2.48ZM89.2891 6.48V24.12H97.2891V6.48H89.2891ZM93.2891 28.12H96.2291V20.12H93.2891V28.12ZM109.243 18.24H105.243V22.24H109.243V18.24ZM109.243 0.599998V-3.4H105.243V0.599998H109.243ZM118.063 0.599998H122.063V-3.4H118.063V0.599998ZM118.063 12.36H114.063V16.36H118.063V12.36ZM121.003 12.36V16.36H125.003V12.36H121.003ZM121.003 0.599998V-3.4H117.003V0.599998H121.003ZM129.823 0.599998H133.823V-3.4H129.823V0.599998ZM129.823 18.24V22.24H133.823V18.24H129.823ZM126.883 18.24V14.24H122.883V18.24H126.883ZM126.883 24.12V28.12H130.883V24.12H126.883ZM123.943 24.12V20.12H119.943V24.12H123.943ZM123.943 30V34H127.943V30H123.943ZM115.123 30H111.123V34H115.123V30ZM115.123 24.12H119.123V20.12H115.123V24.12ZM112.183 24.12H108.183V28.12H112.183V24.12ZM112.183 18.24H116.183V14.24H112.183V18.24ZM113.243 18.24V0.599998H105.243V18.24H113.243ZM109.243 4.6H118.063V-3.4H109.243V4.6ZM114.063 0.599998V12.36H122.063V0.599998H114.063ZM118.063 16.36H121.003V8.36H118.063V16.36ZM125.003 12.36V0.599998H117.003V12.36H125.003ZM121.003 4.6H129.823V-3.4H121.003V4.6ZM125.823 0.599998V18.24H133.823V0.599998H125.823ZM129.823 14.24H126.883V22.24H129.823V14.24ZM122.883 18.24V24.12H130.883V18.24H122.883ZM126.883 20.12H123.943V28.12H126.883V20.12ZM119.943 24.12V30H127.943V24.12H119.943ZM123.943 26H115.123V34H123.943V26ZM119.123 30V24.12H111.123V30H119.123ZM115.123 20.12H112.183V28.12H115.123V20.12ZM116.183 24.12V18.24H108.183V24.12H116.183ZM112.183 14.24H109.243V22.24H112.183V14.24ZM142.836 18.24V14.24H138.836V18.24H142.836ZM142.836 24.12H138.836V28.12H142.836V24.12ZM154.596 24.12H158.596V20.12H154.596V24.12ZM154.596 30V34H158.596V30H154.596ZM134.016 30H130.016V34H134.016V30ZM134.016 0.599998V-3.4H130.016V0.599998H134.016ZM154.596 0.599998H158.596V-3.4H154.596V0.599998ZM154.596 6.48V10.48H158.596V6.48H154.596ZM142.836 6.48V2.48H138.836V6.48H142.836ZM142.836 12.36H138.836V16.36H142.836V12.36ZM151.656 12.36H155.656V8.36H151.656V12.36ZM151.656 18.24V22.24H155.656V18.24H151.656ZM138.836 18.24V24.12H146.836V18.24H138.836ZM142.836 28.12H154.596V20.12H142.836V28.12ZM150.596 24.12V30H158.596V24.12H150.596ZM154.596 26H134.016V34H154.596V26ZM138.016 30V0.599998H130.016V30H138.016ZM134.016 4.6H154.596V-3.4H134.016V4.6ZM150.596 0.599998V6.48H158.596V0.599998H150.596ZM154.596 2.48H142.836V10.48H154.596V2.48ZM138.836 6.48V12.36H146.836V6.48H138.836ZM142.836 16.36H151.656V8.36H142.836V16.36ZM147.656 12.36V18.24H155.656V12.36H147.656ZM151.656 14.24H142.836V22.24H151.656V14.24ZM158.789 30H154.789V34H158.789V30ZM158.789 0.599998V-3.4H154.789V0.599998H158.789ZM179.369 0.599998H183.369V-3.4H179.369V0.599998ZM179.369 12.36V16.36H183.369V12.36H179.369ZM176.429 12.36V8.36H172.429V12.36H176.429ZM176.429 15.3H172.429V19.3H176.429V15.3ZM179.369 15.3H183.369V11.3H179.369V15.3ZM179.369 30V34H183.369V30H179.369ZM170.549 30H166.549V34H170.549V30ZM170.549 18.24H174.549V14.24H170.549V18.24ZM167.609 18.24V14.24H163.609V18.24H167.609ZM167.609 30V34H171.609V30H167.609ZM170.549 12.36V16.36H174.549V12.36H170.549ZM170.549 6.48H174.549V2.48H170.549V6.48ZM167.609 6.48V2.48H163.609V6.48H167.609ZM167.609 12.36H163.609V16.36H167.609V12.36ZM162.789 30V0.599998H154.789V30H162.789ZM158.789 4.6H179.369V-3.4H158.789V4.6ZM175.369 0.599998V12.36H183.369V0.599998H175.369ZM179.369 8.36H176.429V16.36H179.369V8.36ZM172.429 12.36V15.3H180.429V12.36H172.429ZM176.429 19.3H179.369V11.3H176.429V19.3ZM175.369 15.3V30H183.369V15.3H175.369ZM179.369 26H170.549V34H179.369V26ZM174.549 30V18.24H166.549V30H174.549ZM170.549 14.24H167.609V22.24H170.549V14.24ZM163.609 18.24V30H171.609V18.24H163.609ZM167.609 26H158.789V34H167.609V26ZM174.549 12.36V6.48H166.549V12.36H174.549ZM170.549 2.48H167.609V10.48H170.549V2.48ZM163.609 6.48V12.36H171.609V6.48H163.609ZM167.609 16.36H170.549V8.36H167.609V16.36ZM206.671 6.48V2.48H202.671V6.48H206.671ZM206.671 30V34H210.671V30H206.671ZM197.851 30H193.851V34H197.851V30ZM197.851 6.48H201.851V2.48H197.851V6.48ZM191.971 6.48H187.971V10.48H191.971V6.48ZM191.971 0.599998V-3.4H187.971V0.599998H191.971ZM212.551 0.599998H216.551V-3.4H212.551V0.599998ZM212.551 6.48V10.48H216.551V6.48H212.551ZM202.671 6.48V30H210.671V6.48H202.671ZM206.671 26H197.851V34H206.671V26ZM201.851 30V6.48H193.851V30H201.851ZM197.851 2.48H191.971V10.48H197.851V2.48ZM195.971 6.48V0.599998H187.971V6.48H195.971ZM191.971 4.6H212.551V-3.4H191.971V4.6ZM208.551 0.599998V6.48H216.551V0.599998H208.551ZM212.551 2.48H206.671V10.48H212.551V2.48ZM216.745 30H212.745V34H216.745V30ZM216.745 0.599998V-3.4H212.745V0.599998H216.745ZM225.565 0.599998H229.565V-3.4H225.565V0.599998ZM225.565 12.36H221.565V16.36H225.565V12.36ZM228.505 12.36V16.36H232.505V12.36H228.505ZM228.505 0.599998V-3.4H224.505V0.599998H228.505ZM237.325 0.599998H241.325V-3.4H237.325V0.599998ZM237.325 30V34H241.325V30H237.325ZM228.505 30H224.505V34H228.505V30ZM228.505 18.24H232.505V14.24H228.505V18.24ZM225.565 18.24V14.24H221.565V18.24H225.565ZM225.565 30V34H229.565V30H225.565ZM220.745 30V0.599998H212.745V30H220.745ZM216.745 4.6H225.565V-3.4H216.745V4.6ZM221.565 0.599998V12.36H229.565V0.599998H221.565ZM225.565 16.36H228.505V8.36H225.565V16.36ZM232.505 12.36V0.599998H224.505V12.36H232.505ZM228.505 4.6H237.325V-3.4H228.505V4.6ZM233.325 0.599998V30H241.325V0.599998H233.325ZM237.325 26H228.505V34H237.325V26ZM232.505 30V18.24H224.505V30H232.505ZM228.505 14.24H225.565V22.24H228.505V14.24ZM221.565 18.24V30H229.565V18.24H221.565ZM225.565 26H216.745V34H225.565V26ZM250.338 18.24V14.24H246.338V18.24H250.338ZM250.338 24.12H246.338V28.12H250.338V24.12ZM262.098 24.12H266.098V20.12H262.098V24.12ZM262.098 30V34H266.098V30H262.098ZM241.518 30H237.518V34H241.518V30ZM241.518 0.599998V-3.4H237.518V0.599998H241.518ZM262.098 0.599998H266.098V-3.4H262.098V0.599998ZM262.098 6.48V10.48H266.098V6.48H262.098ZM250.338 6.48V2.48H246.338V6.48H250.338ZM250.338 12.36H246.338V16.36H250.338V12.36ZM259.158 12.36H263.158V8.36H259.158V12.36ZM259.158 18.24V22.24H263.158V18.24H259.158ZM246.338 18.24V24.12H254.338V18.24H246.338ZM250.338 28.12H262.098V20.12H250.338V28.12ZM258.098 24.12V30H266.098V24.12H258.098ZM262.098 26H241.518V34H262.098V26ZM245.518 30V0.599998H237.518V30H245.518ZM241.518 4.6H262.098V-3.4H241.518V4.6ZM258.098 0.599998V6.48H266.098V0.599998H258.098ZM262.098 2.48H250.338V10.48H262.098V2.48ZM246.338 6.48V12.36H254.338V6.48H246.338ZM250.338 16.36H259.158V8.36H250.338V16.36ZM255.158 12.36V18.24H263.158V12.36H255.158ZM259.158 14.24H250.338V22.24H259.158V14.24ZM289.4 6.48V2.48H285.4V6.48H289.4ZM289.4 30V34H293.4V30H289.4ZM280.58 30H276.58V34H280.58V30ZM280.58 6.48H284.58V2.48H280.58V6.48ZM274.7 6.48H270.7V10.48H274.7V6.48ZM274.7 0.599998V-3.4H270.7V0.599998H274.7ZM295.28 0.599998H299.28V-3.4H295.28V0.599998ZM295.28 6.48V10.48H299.28V6.48H295.28ZM285.4 6.48V30H293.4V6.48H285.4ZM289.4 26H280.58V34H289.4V26ZM284.58 30V6.48H276.58V30H284.58ZM280.58 2.48H274.7V10.48H280.58V2.48ZM278.7 6.48V0.599998H270.7V6.48H278.7ZM274.7 4.6H295.28V-3.4H274.7V4.6ZM291.28 0.599998V6.48H299.28V0.599998H291.28ZM295.28 2.48H289.4V10.48H295.28V2.48ZM299.473 30H295.473V34H299.473V30ZM299.473 0.599998V-3.4H295.473V0.599998H299.473ZM320.053 0.599998H324.053V-3.4H320.053V0.599998ZM320.053 30V34H324.053V30H320.053ZM311.233 30H307.233V34H311.233V30ZM311.233 18.24H315.233V14.24H311.233V18.24ZM308.293 18.24V14.24H304.293V18.24H308.293ZM308.293 30V34H312.293V30H308.293ZM311.233 12.36V16.36H315.233V12.36H311.233ZM311.233 6.48H315.233V2.48H311.233V6.48ZM308.293 6.48V2.48H304.293V6.48H308.293ZM308.293 12.36H304.293V16.36H308.293V12.36ZM303.473 30V0.599998H295.473V30H303.473ZM299.473 4.6H320.053V-3.4H299.473V4.6ZM316.053 0.599998V30H324.053V0.599998H316.053ZM320.053 26H311.233V34H320.053V26ZM315.233 30V18.24H307.233V30H315.233ZM311.233 14.24H308.293V22.24H311.233V14.24ZM304.293 18.24V30H312.293V18.24H304.293ZM308.293 26H299.473V34H308.293V26ZM315.233 12.36V6.48H307.233V12.36H315.233ZM311.233 2.48H308.293V10.48H311.233V2.48ZM304.293 6.48V12.36H312.293V6.48H304.293ZM308.293 16.36H311.233V8.36H308.293V16.36ZM324.246 18.24H320.246V22.24H324.246V18.24ZM324.246 0.599998V-3.4H320.246V0.599998H324.246ZM344.826 0.599998H348.826V-3.4H344.826V0.599998ZM344.826 6.48V10.48H348.826V6.48H344.826ZM333.066 6.48V2.48H329.066V6.48H333.066ZM333.066 12.36H329.066V16.36H333.066V12.36ZM344.826 12.36H348.826V8.36H344.826V12.36ZM344.826 30V34H348.826V30H344.826ZM324.246 30H320.246V34H324.246V30ZM324.246 24.12V20.12H320.246V24.12H324.246ZM336.006 24.12V28.12H340.006V24.12H336.006ZM336.006 18.24H340.006V14.24H336.006V18.24ZM328.246 18.24V0.599998H320.246V18.24H328.246ZM324.246 4.6H344.826V-3.4H324.246V4.6ZM340.826 0.599998V6.48H348.826V0.599998H340.826ZM344.826 2.48H333.066V10.48H344.826V2.48ZM329.066 6.48V12.36H337.066V6.48H329.066ZM333.066 16.36H344.826V8.36H333.066V16.36ZM340.826 12.36V30H348.826V12.36H340.826ZM344.826 26H324.246V34H344.826V26ZM328.246 30V24.12H320.246V30H328.246ZM324.246 28.12H336.006V20.12H324.246V28.12ZM340.006 24.12V18.24H332.006V24.12H340.006ZM336.006 14.24H324.246V22.24H336.006V14.24ZM363.72 6.48V2.48H359.72V6.48H363.72ZM363.72 30V34H367.72V30H363.72ZM354.9 30H350.9V34H354.9V30ZM354.9 6.48H358.9V2.48H354.9V6.48ZM349.02 6.48H345.02V10.48H349.02V6.48ZM349.02 0.599998V-3.4H345.02V0.599998H349.02ZM369.6 0.599998H373.6V-3.4H369.6V0.599998ZM369.6 6.48V10.48H373.6V6.48H369.6ZM359.72 6.48V30H367.72V6.48H359.72ZM363.72 26H354.9V34H363.72V26ZM358.9 30V6.48H350.9V30H358.9ZM354.9 2.48H349.02V10.48H354.9V2.48ZM353.02 6.48V0.599998H345.02V6.48H353.02ZM349.02 4.6H369.6V-3.4H349.02V4.6ZM365.6 0.599998V6.48H373.6V0.599998H365.6ZM369.6 2.48H363.72V10.48H369.6V2.48ZM382.613 18.24V14.24H378.613V18.24H382.613ZM382.613 24.12H378.613V28.12H382.613V24.12ZM394.373 24.12H398.373V20.12H394.373V24.12ZM394.373 30V34H398.373V30H394.373ZM373.793 30H369.793V34H373.793V30ZM373.793 0.599998V-3.4H369.793V0.599998H373.793ZM394.373 0.599998H398.373V-3.4H394.373V0.599998ZM394.373 6.48V10.48H398.373V6.48H394.373ZM382.613 6.48V2.48H378.613V6.48H382.613ZM382.613 12.36H378.613V16.36H382.613V12.36ZM391.433 12.36H395.433V8.36H391.433V12.36ZM391.433 18.24V22.24H395.433V18.24H391.433ZM378.613 18.24V24.12H386.613V18.24H378.613ZM382.613 28.12H394.373V20.12H382.613V28.12ZM390.373 24.12V30H398.373V24.12H390.373ZM394.373 26H373.793V34H394.373V26ZM377.793 30V0.599998H369.793V30H377.793ZM373.793 4.6H394.373V-3.4H373.793V4.6ZM390.373 0.599998V6.48H398.373V0.599998H390.373ZM394.373 2.48H382.613V10.48H394.373V2.48ZM378.613 6.48V12.36H386.613V6.48H378.613ZM382.613 16.36H391.433V8.36H382.613V16.36ZM387.433 12.36V18.24H395.433V12.36H387.433ZM391.433 14.24H382.613V22.24H391.433V14.24ZM406.975 30H402.975V34H406.975V30ZM406.975 0.599998V-3.4H402.975V0.599998H406.975ZM427.555 0.599998H431.555V-3.4H427.555V0.599998ZM427.555 30V34H431.555V30H427.555ZM418.735 24.12V28.12H422.735V24.12H418.735ZM418.735 6.48H422.735V2.48H418.735V6.48ZM415.795 6.48V2.48H411.795V6.48H415.795ZM415.795 24.12H411.795V28.12H415.795V24.12ZM410.975 30V0.599998H402.975V30H410.975ZM406.975 4.6H427.555V-3.4H406.975V4.6ZM423.555 0.599998V30H431.555V0.599998H423.555ZM427.555 26H406.975V34H427.555V26ZM422.735 24.12V6.48H414.735V24.12H422.735ZM418.735 2.48H415.795V10.48H418.735V2.48ZM411.795 6.48V24.12H419.795V6.48H411.795ZM415.795 28.12H418.735V20.12H415.795V28.12ZM440.568 18.24V14.24H436.568V18.24H440.568ZM440.568 30V34H444.568V30H440.568ZM431.748 30H427.748V34H431.748V30ZM431.748 0.599998V-3.4H427.748V0.599998H431.748ZM452.328 0.599998H456.328V-3.4H452.328V0.599998ZM452.328 6.48V10.48H456.328V6.48H452.328ZM440.568 6.48V2.48H436.568V6.48H440.568ZM440.568 12.36H436.568V16.36H440.568V12.36ZM449.388 12.36H453.388V8.36H449.388V12.36ZM449.388 18.24V22.24H453.388V18.24H449.388ZM436.568 18.24V30H444.568V18.24H436.568ZM440.568 26H431.748V34H440.568V26ZM435.748 30V0.599998H427.748V30H435.748ZM431.748 4.6H452.328V-3.4H431.748V4.6ZM448.328 0.599998V6.48H456.328V0.599998H448.328ZM452.328 2.48H440.568V10.48H452.328V2.48ZM436.568 6.48V12.36H444.568V6.48H436.568ZM440.568 16.36H449.388V8.36H440.568V16.36ZM445.388 12.36V18.24H453.388V12.36H445.388ZM449.388 14.24H440.568V22.24H449.388V14.24ZM473.75 18.24V14.24H469.75V18.24H473.75ZM473.75 30V34H477.75V30H473.75ZM464.93 30H460.93V34H464.93V30ZM464.93 0.599998V-3.4H460.93V0.599998H464.93ZM473.75 0.599998H477.75V-3.4H473.75V0.599998ZM473.75 6.48H469.75V10.48H473.75V6.48ZM476.69 6.48H480.69V2.48H476.69V6.48ZM476.69 12.36H472.69V16.36H476.69V12.36ZM479.63 12.36V16.36H483.63V12.36H479.63ZM479.63 0.599998V-3.4H475.63V0.599998H479.63ZM488.45 0.599998H492.45V-3.4H488.45V0.599998ZM488.45 30V34H492.45V30H488.45ZM479.63 30H475.63V34H479.63V30ZM479.63 24.12H483.63V20.12H479.63V24.12ZM476.69 24.12H472.69V28.12H476.69V24.12ZM476.69 18.24H480.69V14.24H476.69V18.24ZM469.75 18.24V30H477.75V18.24H469.75ZM473.75 26H464.93V34H473.75V26ZM468.93 30V0.599998H460.93V30H468.93ZM464.93 4.6H473.75V-3.4H464.93V4.6ZM469.75 0.599998V6.48H477.75V0.599998H469.75ZM473.75 10.48H476.69V2.48H473.75V10.48ZM472.69 6.48V12.36H480.69V6.48H472.69ZM476.69 16.36H479.63V8.36H476.69V16.36ZM483.63 12.36V0.599998H475.63V12.36H483.63ZM479.63 4.6H488.45V-3.4H479.63V4.6ZM484.45 0.599998V30H492.45V0.599998H484.45ZM488.45 26H479.63V34H488.45V26ZM483.63 30V24.12H475.63V30H483.63ZM479.63 20.12H476.69V28.12H479.63V20.12ZM480.69 24.12V18.24H472.69V24.12H480.69ZM476.69 14.24H473.75V22.24H476.69V14.24ZM492.657 30H488.657V34H492.657V30ZM492.657 0.599998V-3.4H488.657V0.599998H492.657ZM513.237 0.599998H517.237V-3.4H513.237V0.599998ZM513.237 30V34H517.237V30H513.237ZM504.417 30H500.417V34H504.417V30ZM504.417 18.24H508.417V14.24H504.417V18.24ZM501.477 18.24V14.24H497.477V18.24H501.477ZM501.477 30V34H505.477V30H501.477ZM504.417 12.36V16.36H508.417V12.36H504.417ZM504.417 6.48H508.417V2.48H504.417V6.48ZM501.477 6.48V2.48H497.477V6.48H501.477ZM501.477 12.36H497.477V16.36H501.477V12.36ZM496.657 30V0.599998H488.657V30H496.657ZM492.657 4.6H513.237V-3.4H492.657V4.6ZM509.237 0.599998V30H517.237V0.599998H509.237ZM513.237 26H504.417V34H513.237V26ZM508.417 30V18.24H500.417V30H508.417ZM504.417 14.24H501.477V22.24H504.417V14.24ZM497.477 18.24V30H505.477V18.24H497.477ZM501.477 26H492.657V34H501.477V26ZM508.417 12.36V6.48H500.417V12.36H508.417ZM504.417 2.48H501.477V10.48H504.417V2.48ZM497.477 6.48V12.36H505.477V6.48H497.477ZM501.477 16.36H504.417V8.36H501.477V16.36ZM532.13 6.48V2.48H528.13V6.48H532.13ZM532.13 30V34H536.13V30H532.13ZM523.31 30H519.31V34H523.31V30ZM523.31 6.48H527.31V2.48H523.31V6.48ZM517.43 6.48H513.43V10.48H517.43V6.48ZM517.43 0.599998V-3.4H513.43V0.599998H517.43ZM538.01 0.599998H542.01V-3.4H538.01V0.599998ZM538.01 6.48V10.48H542.01V6.48H538.01ZM528.13 6.48V30H536.13V6.48H528.13ZM532.13 26H523.31V34H532.13V26ZM527.31 30V6.48H519.31V30H527.31ZM523.31 2.48H517.43V10.48H523.31V2.48ZM521.43 6.48V0.599998H513.43V6.48H521.43ZM517.43 4.6H538.01V-3.4H517.43V4.6ZM534.01 0.599998V6.48H542.01V0.599998H534.01ZM538.01 2.48H532.13V10.48H538.01V2.48ZM542.203 30H538.203V34H542.203V30ZM542.203 0.599998V-3.4H538.203V0.599998H542.203ZM551.023 0.599998H555.023V-3.4H551.023V0.599998ZM551.023 24.12H547.023V28.12H551.023V24.12ZM553.964 24.12V28.12H557.964V24.12H553.964ZM553.964 0.599998V-3.4H549.964V0.599998H553.964ZM562.784 0.599998H566.784V-3.4H562.784V0.599998ZM562.784 30V34H566.784V30H562.784ZM546.203 30V0.599998H538.203V30H546.203ZM542.203 4.6H551.023V-3.4H542.203V4.6ZM547.023 0.599998V24.12H555.023V0.599998H547.023ZM551.023 28.12H553.964V20.12H551.023V28.12ZM557.964 24.12V0.599998H549.964V24.12H557.964ZM553.964 4.6H562.784V-3.4H553.964V4.6ZM558.784 0.599998V30H566.784V0.599998H558.784ZM562.784 26H542.203V34H562.784V26ZM566.977 30H562.977V34H566.977V30ZM566.977 0.599998V-3.4H562.977V0.599998H566.977ZM587.557 0.599998H591.557V-3.4H587.557V0.599998ZM587.557 12.36V16.36H591.557V12.36H587.557ZM584.617 12.36V8.36H580.617V12.36H584.617ZM584.617 15.3H580.617V19.3H584.617V15.3ZM587.557 15.3H591.557V11.3H587.557V15.3ZM587.557 30V34H591.557V30H587.557ZM578.737 30H574.737V34H578.737V30ZM578.737 18.24H582.737V14.24H578.737V18.24ZM575.797 18.24V14.24H571.797V18.24H575.797ZM575.797 30V34H579.797V30H575.797ZM578.737 12.36V16.36H582.737V12.36H578.737ZM578.737 6.48H582.737V2.48H578.737V6.48ZM575.797 6.48V2.48H571.797V6.48H575.797ZM575.797 12.36H571.797V16.36H575.797V12.36ZM570.977 30V0.599998H562.977V30H570.977ZM566.977 4.6H587.557V-3.4H566.977V4.6ZM583.557 0.599998V12.36H591.557V0.599998H583.557ZM587.557 8.36H584.617V16.36H587.557V8.36ZM580.617 12.36V15.3H588.617V12.36H580.617ZM584.617 19.3H587.557V11.3H584.617V19.3ZM583.557 15.3V30H591.557V15.3H583.557ZM587.557 26H578.737V34H587.557V26ZM582.737 30V18.24H574.737V30H582.737ZM578.737 14.24H575.797V22.24H578.737V14.24ZM571.797 18.24V30H579.797V18.24H571.797ZM575.797 26H566.977V34H575.797V26ZM582.737 12.36V6.48H574.737V12.36H582.737ZM578.737 2.48H575.797V10.48H578.737V2.48ZM571.797 6.48V12.36H579.797V6.48H571.797ZM575.797 16.36H578.737V8.36H575.797V16.36ZM600.57 18.24V14.24H596.57V18.24H600.57ZM600.57 24.12H596.57V28.12H600.57V24.12ZM612.33 24.12H616.33V20.12H612.33V24.12ZM612.33 30V34H616.33V30H612.33ZM591.75 30H587.75V34H591.75V30ZM591.75 0.599998V-3.4H587.75V0.599998H591.75ZM612.33 0.599998H616.33V-3.4H612.33V0.599998ZM612.33 6.48V10.48H616.33V6.48H612.33ZM600.57 6.48V2.48H596.57V6.48H600.57ZM600.57 12.36H596.57V16.36H600.57V12.36ZM609.39 12.36H613.39V8.36H609.39V12.36ZM609.39 18.24V22.24H613.39V18.24H609.39ZM596.57 18.24V24.12H604.57V18.24H596.57ZM600.57 28.12H612.33V20.12H600.57V28.12ZM608.33 24.12V30H616.33V24.12H608.33ZM612.33 26H591.75V34H612.33V26ZM595.75 30V0.599998H587.75V30H595.75ZM591.75 4.6H612.33V-3.4H591.75V4.6ZM608.33 0.599998V6.48H616.33V0.599998H608.33ZM612.33 2.48H600.57V10.48H612.33V2.48ZM596.57 6.48V12.36H604.57V6.48H596.57ZM600.57 16.36H609.39V8.36H600.57V16.36ZM605.39 12.36V18.24H613.39V12.36H605.39ZM609.39 14.24H600.57V22.24H609.39V14.24ZM616.524 9.42H612.524V13.42H616.524V9.42ZM616.524 0.599998V-3.4H612.524V0.599998H616.524ZM625.344 0.599998H629.344V-3.4H625.344V0.599998ZM625.344 15.3V19.3H629.344V15.3H625.344ZM619.464 15.3H615.464V19.3H619.464V15.3ZM619.464 9.42H623.464V5.42H619.464V9.42ZM620.524 9.42V0.599998H612.524V9.42H620.524ZM616.524 4.6H625.344V-3.4H616.524V4.6ZM621.344 0.599998V15.3H629.344V0.599998H621.344ZM625.344 11.3H619.464V19.3H625.344V11.3ZM623.464 15.3V9.42H615.464V15.3H623.464ZM619.464 5.42H616.524V13.42H619.464V5.42ZM632.479 18.24H628.479V22.24H632.479V18.24ZM632.479 0.599998V-3.4H628.479V0.599998H632.479ZM653.059 0.599998H657.059V-3.4H653.059V0.599998ZM653.059 6.48V10.48H657.059V6.48H653.059ZM641.299 6.48V2.48H637.299V6.48H641.299ZM641.299 12.36H637.299V16.36H641.299V12.36ZM653.059 12.36H657.059V8.36H653.059V12.36ZM653.059 30V34H657.059V30H653.059ZM632.479 30H628.479V34H632.479V30ZM632.479 24.12V20.12H628.479V24.12H632.479ZM644.239 24.12V28.12H648.239V24.12H644.239ZM644.239 18.24H648.239V14.24H644.239V18.24ZM636.479 18.24V0.599998H628.479V18.24H636.479ZM632.479 4.6H653.059V-3.4H632.479V4.6ZM649.059 0.599998V6.48H657.059V0.599998H649.059ZM653.059 2.48H641.299V10.48H653.059V2.48ZM637.299 6.48V12.36H645.299V6.48H637.299ZM641.299 16.36H653.059V8.36H641.299V16.36ZM649.059 12.36V30H657.059V12.36H649.059ZM653.059 26H632.479V34H653.059V26ZM636.479 30V24.12H628.479V30H636.479ZM632.479 28.12H644.239V20.12H632.479V28.12ZM648.239 24.12V18.24H640.239V24.12H648.239ZM644.239 14.24H632.479V22.24H644.239V14.24ZM0.1 60.24H-3.9V64.24H0.1V60.24ZM0.1 42.6V38.6H-3.9V42.6H0.1ZM20.68 42.6H24.68V38.6H20.68V42.6ZM20.68 48.48V52.48H24.68V48.48H20.68ZM8.92 48.48V44.48H4.92V48.48H8.92ZM8.92 54.36H4.92V58.36H8.92V54.36ZM20.68 54.36H24.68V50.36H20.68V54.36ZM20.68 72V76H24.68V72H20.68ZM0.1 72H-3.9V76H0.1V72ZM0.1 66.12V62.12H-3.9V66.12H0.1ZM11.86 66.12V70.12H15.86V66.12H11.86ZM11.86 60.24H15.86V56.24H11.86V60.24ZM4.1 60.24V42.6H-3.9V60.24H4.1ZM0.1 46.6H20.68V38.6H0.1V46.6ZM16.68 42.6V48.48H24.68V42.6H16.68ZM20.68 44.48H8.92V52.48H20.68V44.48ZM4.92 48.48V54.36H12.92V48.48H4.92ZM8.92 58.36H20.68V50.36H8.92V58.36ZM16.68 54.36V72H24.68V54.36H16.68ZM20.68 68H0.1V76H20.68V68ZM4.1 72V66.12H-3.9V72H4.1ZM0.1 70.12H11.86V62.12H0.1V70.12ZM15.86 66.12V60.24H7.86V66.12H15.86ZM11.86 56.24H0.1V64.24H11.86V56.24ZM33.6934 42.6H37.6934V38.6H33.6934V42.6ZM33.6934 57.3H29.6934V61.3H33.6934V57.3ZM36.6334 57.3V61.3H40.6334V57.3H36.6334ZM36.6334 51.42V47.42H32.6334V51.42H36.6334ZM42.5134 51.42H46.5134V47.42H42.5134V51.42ZM42.5134 57.3H38.5134V61.3H42.5134V57.3ZM45.4534 57.3V61.3H49.4534V57.3H45.4534ZM45.4534 42.6V38.6H41.4534V42.6H45.4534ZM54.2734 42.6H58.2734V38.6H54.2734V42.6ZM54.2734 66.12V70.12H58.2734V66.12H54.2734ZM51.3334 66.12V62.12H47.3334V66.12H51.3334ZM51.3334 72V76H55.3334V72H51.3334ZM42.5134 72H38.5134V76H42.5134V72ZM42.5134 63.18H46.5134V59.18H42.5134V63.18ZM36.6334 63.18V59.18H32.6334V63.18H36.6334ZM36.6334 72V76H40.6334V72H36.6334ZM27.8134 72H23.8134V76H27.8134V72ZM27.8134 66.12H31.8134V62.12H27.8134V66.12ZM24.8734 66.12H20.8734V70.12H24.8734V66.12ZM24.8734 42.6V38.6H20.8734V42.6H24.8734ZM29.6934 42.6V57.3H37.6934V42.6H29.6934ZM33.6934 61.3H36.6334V53.3H33.6934V61.3ZM40.6334 57.3V51.42H32.6334V57.3H40.6334ZM36.6334 55.42H42.5134V47.42H36.6334V55.42ZM38.5134 51.42V57.3H46.5134V51.42H38.5134ZM42.5134 61.3H45.4534V53.3H42.5134V61.3ZM49.4534 57.3V42.6H41.4534V57.3H49.4534ZM45.4534 46.6H54.2734V38.6H45.4534V46.6ZM50.2734 42.6V66.12H58.2734V42.6H50.2734ZM54.2734 62.12H51.3334V70.12H54.2734V62.12ZM47.3334 66.12V72H55.3334V66.12H47.3334ZM51.3334 68H42.5134V76H51.3334V68ZM46.5134 72V63.18H38.5134V72H46.5134ZM42.5134 59.18H36.6334V67.18H42.5134V59.18ZM32.6334 63.18V72H40.6334V63.18H32.6334ZM36.6334 68H27.8134V76H36.6334V68ZM31.8134 72V66.12H23.8134V72H31.8134ZM27.8134 62.12H24.8734V70.12H27.8134V62.12ZM28.8734 66.12V42.6H20.8734V66.12H28.8734ZM24.8734 46.6H33.6934V38.6H24.8734V46.6ZM67.2852 60.24V56.24H63.2852V60.24H67.2852ZM67.2852 66.12H63.2852V70.12H67.2852V66.12ZM79.0452 66.12H83.0452V62.12H79.0452V66.12ZM79.0452 72V76H83.0452V72H79.0452ZM58.4652 72H54.4652V76H58.4652V72ZM58.4652 42.6V38.6H54.4652V42.6H58.4652ZM79.0452 42.6H83.0452V38.6H79.0452V42.6ZM79.0452 48.48V52.48H83.0452V48.48H79.0452ZM67.2852 48.48V44.48H63.2852V48.48H67.2852ZM67.2852 54.36H63.2852V58.36H67.2852V54.36ZM76.1052 54.36H80.1052V50.36H76.1052V54.36ZM76.1052 60.24V64.24H80.1052V60.24H76.1052ZM63.2852 60.24V66.12H71.2852V60.24H63.2852ZM67.2852 70.12H79.0452V62.12H67.2852V70.12ZM75.0452 66.12V72H83.0452V66.12H75.0452ZM79.0452 68H58.4652V76H79.0452V68ZM62.4652 72V42.6H54.4652V72H62.4652ZM58.4652 46.6H79.0452V38.6H58.4652V46.6ZM75.0452 42.6V48.48H83.0452V42.6H75.0452ZM79.0452 44.48H67.2852V52.48H79.0452V44.48ZM63.2852 48.48V54.36H71.2852V48.48H63.2852ZM67.2852 58.36H76.1052V50.36H67.2852V58.36ZM72.1052 54.36V60.24H80.1052V54.36H72.1052ZM76.1052 56.24H67.2852V64.24H76.1052V56.24ZM92.0587 60.24V56.24H88.0587V60.24H92.0587ZM92.0587 66.12H88.0587V70.12H92.0587V66.12ZM103.819 66.12H107.819V62.12H103.819V66.12ZM103.819 72V76H107.819V72H103.819ZM83.2387 72H79.2387V76H83.2387V72ZM83.2387 42.6V38.6H79.2387V42.6H83.2387ZM103.819 42.6H107.819V38.6H103.819V42.6ZM103.819 48.48V52.48H107.819V48.48H103.819ZM92.0587 48.48V44.48H88.0587V48.48H92.0587ZM92.0587 54.36H88.0587V58.36H92.0587V54.36ZM100.879 54.36H104.879V50.36H100.879V54.36ZM100.879 60.24V64.24H104.879V60.24H100.879ZM88.0587 60.24V66.12H96.0587V60.24H88.0587ZM92.0587 70.12H103.819V62.12H92.0587V70.12ZM99.8187 66.12V72H107.819V66.12H99.8187ZM103.819 68H83.2387V76H103.819V68ZM87.2387 72V42.6H79.2387V72H87.2387ZM83.2387 46.6H103.819V38.6H83.2387V46.6ZM99.8187 42.6V48.48H107.819V42.6H99.8187ZM103.819 44.48H92.0587V52.48H103.819V44.48ZM88.0587 48.48V54.36H96.0587V48.48H88.0587ZM92.0587 58.36H100.879V50.36H92.0587V58.36ZM96.8787 54.36V60.24H104.879V54.36H96.8787ZM100.879 56.24H92.0587V64.24H100.879V56.24ZM122.712 48.48V44.48H118.712V48.48H122.712ZM122.712 72V76H126.712V72H122.712ZM113.892 72H109.892V76H113.892V72ZM113.892 48.48H117.892V44.48H113.892V48.48ZM108.012 48.48H104.012V52.48H108.012V48.48ZM108.012 42.6V38.6H104.012V42.6H108.012ZM128.592 42.6H132.592V38.6H128.592V42.6ZM128.592 48.48V52.48H132.592V48.48H128.592ZM118.712 48.48V72H126.712V48.48H118.712ZM122.712 68H113.892V76H122.712V68ZM117.892 72V48.48H109.892V72H117.892ZM113.892 44.48H108.012V52.48H113.892V44.48ZM112.012 48.48V42.6H104.012V48.48H112.012ZM108.012 46.6H128.592V38.6H108.012V46.6ZM124.592 42.6V48.48H132.592V42.6H124.592ZM128.592 44.48H122.712V52.48H128.592V44.48ZM141.606 60.24V56.24H137.606V60.24H141.606ZM141.606 66.12H137.606V70.12H141.606V66.12ZM153.366 66.12H157.366V62.12H153.366V66.12ZM153.366 72V76H157.366V72H153.366ZM132.786 72H128.786V76H132.786V72ZM132.786 42.6V38.6H128.786V42.6H132.786ZM153.366 42.6H157.366V38.6H153.366V42.6ZM153.366 48.48V52.48H157.366V48.48H153.366ZM141.606 48.48V44.48H137.606V48.48H141.606ZM141.606 54.36H137.606V58.36H141.606V54.36ZM150.426 54.36H154.426V50.36H150.426V54.36ZM150.426 60.24V64.24H154.426V60.24H150.426ZM137.606 60.24V66.12H145.606V60.24H137.606ZM141.606 70.12H153.366V62.12H141.606V70.12ZM149.366 66.12V72H157.366V66.12H149.366ZM153.366 68H132.786V76H153.366V68ZM136.786 72V42.6H128.786V72H136.786ZM132.786 46.6H153.366V38.6H132.786V46.6ZM149.366 42.6V48.48H157.366V42.6H149.366ZM153.366 44.48H141.606V52.48H153.366V44.48ZM137.606 48.48V54.36H145.606V48.48H137.606ZM141.606 58.36H150.426V50.36H141.606V58.36ZM146.426 54.36V60.24H154.426V54.36H146.426ZM150.426 56.24H141.606V64.24H150.426V56.24ZM157.559 60.24H153.559V64.24H157.559V60.24ZM157.559 42.6V38.6H153.559V42.6H157.559ZM178.139 42.6H182.139V38.6H178.139V42.6ZM178.139 48.48V52.48H182.139V48.48H178.139ZM166.379 48.48V44.48H162.379V48.48H166.379ZM166.379 54.36H162.379V58.36H166.379V54.36ZM178.139 54.36H182.139V50.36H178.139V54.36ZM178.139 72V76H182.139V72H178.139ZM157.559 72H153.559V76H157.559V72ZM157.559 66.12V62.12H153.559V66.12H157.559ZM169.319 66.12V70.12H173.319V66.12H169.319ZM169.319 60.24H173.319V56.24H169.319V60.24ZM161.559 60.24V42.6H153.559V60.24H161.559ZM157.559 46.6H178.139V38.6H157.559V46.6ZM174.139 42.6V48.48H182.139V42.6H174.139ZM178.139 44.48H166.379V52.48H178.139V44.48ZM162.379 48.48V54.36H170.379V48.48H162.379ZM166.379 58.36H178.139V50.36H166.379V58.36ZM174.139 54.36V72H182.139V54.36H174.139ZM178.139 68H157.559V76H178.139V68ZM161.559 72V66.12H153.559V72H161.559ZM157.559 70.12H169.319V62.12H157.559V70.12ZM173.319 66.12V60.24H165.319V66.12H173.319ZM169.319 56.24H157.559V64.24H169.319V56.24ZM197.032 48.48V44.48H193.032V48.48H197.032ZM197.032 72V76H201.032V72H197.032ZM188.212 72H184.212V76H188.212V72ZM188.212 48.48H192.212V44.48H188.212V48.48ZM182.332 48.48H178.332V52.48H182.332V48.48ZM182.332 42.6V38.6H178.332V42.6H182.332ZM202.912 42.6H206.912V38.6H202.912V42.6ZM202.912 48.48V52.48H206.912V48.48H202.912ZM193.032 48.48V72H201.032V48.48H193.032ZM197.032 68H188.212V76H197.032V68ZM192.212 72V48.48H184.212V72H192.212ZM188.212 44.48H182.332V52.48H188.212V44.48ZM186.332 48.48V42.6H178.332V48.48H186.332ZM182.332 46.6H202.912V38.6H182.332V46.6ZM198.912 42.6V48.48H206.912V42.6H198.912ZM202.912 44.48H197.032V52.48H202.912V44.48ZM224.334 60.24V56.24H220.334V60.24H224.334ZM224.334 72V76H228.334V72H224.334ZM215.514 72H211.514V76H215.514V72ZM215.514 42.6V38.6H211.514V42.6H215.514ZM224.334 42.6H228.334V38.6H224.334V42.6ZM224.334 48.48H220.334V52.48H224.334V48.48ZM227.274 48.48H231.274V44.48H227.274V48.48ZM227.274 54.36H223.274V58.36H227.274V54.36ZM233.154 54.36V58.36H237.154V54.36H233.154ZM233.154 48.48V44.48H229.154V48.48H233.154ZM236.094 48.48V52.48H240.094V48.48H236.094ZM236.094 42.6V38.6H232.094V42.6H236.094ZM244.914 42.6H248.914V38.6H244.914V42.6ZM244.914 72V76H248.914V72H244.914ZM236.094 72H232.094V76H236.094V72ZM236.094 60.24H240.094V56.24H236.094V60.24ZM233.154 60.24V56.24H229.154V60.24H233.154ZM233.154 66.12V70.12H237.154V66.12H233.154ZM227.274 66.12H223.274V70.12H227.274V66.12ZM227.274 60.24H231.274V56.24H227.274V60.24ZM220.334 60.24V72H228.334V60.24H220.334ZM224.334 68H215.514V76H224.334V68ZM219.514 72V42.6H211.514V72H219.514ZM215.514 46.6H224.334V38.6H215.514V46.6ZM220.334 42.6V48.48H228.334V42.6H220.334ZM224.334 52.48H227.274V44.48H224.334V52.48ZM223.274 48.48V54.36H231.274V48.48H223.274ZM227.274 58.36H233.154V50.36H227.274V58.36ZM237.154 54.36V48.48H229.154V54.36H237.154ZM233.154 52.48H236.094V44.48H233.154V52.48ZM240.094 48.48V42.6H232.094V48.48H240.094ZM236.094 46.6H244.914V38.6H236.094V46.6ZM240.914 42.6V72H248.914V42.6H240.914ZM244.914 68H236.094V76H244.914V68ZM240.094 72V60.24H232.094V72H240.094ZM236.094 56.24H233.154V64.24H236.094V56.24ZM229.154 60.24V66.12H237.154V60.24H229.154ZM233.154 62.12H227.274V70.12H233.154V62.12ZM231.274 66.12V60.24H223.274V66.12H231.274ZM227.274 56.24H224.334V64.24H227.274V56.24ZM249.106 72H245.106V76H249.106V72ZM249.106 42.6V38.6H245.106V42.6H249.106ZM269.686 42.6H273.686V38.6H269.686V42.6ZM269.686 72V76H273.686V72H269.686ZM260.866 72H256.866V76H260.866V72ZM260.866 60.24H264.866V56.24H260.866V60.24ZM257.926 60.24V56.24H253.926V60.24H257.926ZM257.926 72V76H261.926V72H257.926ZM260.866 54.36V58.36H264.866V54.36H260.866ZM260.866 48.48H264.866V44.48H260.866V48.48ZM257.926 48.48V44.48H253.926V48.48H257.926ZM257.926 54.36H253.926V58.36H257.926V54.36ZM253.106 72V42.6H245.106V72H253.106ZM249.106 46.6H269.686V38.6H249.106V46.6ZM265.686 42.6V72H273.686V42.6H265.686ZM269.686 68H260.866V76H269.686V68ZM264.866 72V60.24H256.866V72H264.866ZM260.866 56.24H257.926V64.24H260.866V56.24ZM253.926 60.24V72H261.926V60.24H253.926ZM257.926 68H249.106V76H257.926V68ZM264.866 54.36V48.48H256.866V54.36H264.866ZM260.866 44.48H257.926V52.48H260.866V44.48ZM253.926 48.48V54.36H261.926V48.48H253.926ZM257.926 58.36H260.866V50.36H257.926V58.36ZM282.699 60.24V56.24H278.699V60.24H282.699ZM282.699 72V76H286.699V72H282.699ZM273.879 72H269.879V76H273.879V72ZM273.879 42.6V38.6H269.879V42.6H273.879ZM282.699 42.6H286.699V38.6H282.699V42.6ZM282.699 48.48H278.699V52.48H282.699V48.48ZM285.639 48.48H289.639V44.48H285.639V48.48ZM285.639 54.36H281.639V58.36H285.639V54.36ZM288.579 54.36V58.36H292.579V54.36H288.579ZM288.579 42.6V38.6H284.579V42.6H288.579ZM297.399 42.6H301.399V38.6H297.399V42.6ZM297.399 72V76H301.399V72H297.399ZM288.579 72H284.579V76H288.579V72ZM288.579 66.12H292.579V62.12H288.579V66.12ZM285.639 66.12H281.639V70.12H285.639V66.12ZM285.639 60.24H289.639V56.24H285.639V60.24ZM278.699 60.24V72H286.699V60.24H278.699ZM282.699 68H273.879V76H282.699V68ZM277.879 72V42.6H269.879V72H277.879ZM273.879 46.6H282.699V38.6H273.879V46.6ZM278.699 42.6V48.48H286.699V42.6H278.699ZM282.699 52.48H285.639V44.48H282.699V52.48ZM281.639 48.48V54.36H289.639V48.48H281.639ZM285.639 58.36H288.579V50.36H285.639V58.36ZM292.579 54.36V42.6H284.579V54.36H292.579ZM288.579 46.6H297.399V38.6H288.579V46.6ZM293.399 42.6V72H301.399V42.6H293.399ZM297.399 68H288.579V76H297.399V68ZM292.579 72V66.12H284.579V72H292.579ZM288.579 62.12H285.639V70.12H288.579V62.12ZM289.639 66.12V60.24H281.639V66.12H289.639ZM285.639 56.24H282.699V64.24H285.639V56.24ZM313.366 66.12V70.12H317.366V66.12H313.366ZM313.366 54.36V50.36H309.366V54.36H313.366ZM322.186 54.36H326.186V50.36H322.186V54.36ZM322.186 72V76H326.186V72H322.186ZM301.606 72H297.606V76H301.606V72ZM301.606 42.6V38.6H297.606V42.6H301.606ZM322.186 42.6H326.186V38.6H322.186V42.6ZM322.186 48.48V52.48H326.186V48.48H322.186ZM310.426 48.48V44.48H306.426V48.48H310.426ZM310.426 66.12H306.426V70.12H310.426V66.12ZM317.366 66.12V54.36H309.366V66.12H317.366ZM313.366 58.36H322.186V50.36H313.366V58.36ZM318.186 54.36V72H326.186V54.36H318.186ZM322.186 68H301.606V76H322.186V68ZM305.606 72V42.6H297.606V72H305.606ZM301.606 46.6H322.186V38.6H301.606V46.6ZM318.186 42.6V48.48H326.186V42.6H318.186ZM322.186 44.48H310.426V52.48H322.186V44.48ZM306.426 48.48V66.12H314.426V48.48H306.426ZM310.426 70.12H313.366V62.12H310.426V70.12ZM326.379 72H322.379V76H326.379V72ZM326.379 42.6V38.6H322.379V42.6H326.379ZM346.959 42.6H350.959V38.6H346.959V42.6ZM346.959 72V76H350.959V72H346.959ZM338.139 66.12V70.12H342.139V66.12H338.139ZM338.139 48.48H342.139V44.48H338.139V48.48ZM335.199 48.48V44.48H331.199V48.48H335.199ZM335.199 66.12H331.199V70.12H335.199V66.12ZM330.379 72V42.6H322.379V72H330.379ZM326.379 46.6H346.959V38.6H326.379V46.6ZM342.959 42.6V72H350.959V42.6H342.959ZM346.959 68H326.379V76H346.959V68ZM342.139 66.12V48.48H334.139V66.12H342.139ZM338.139 44.48H335.199V52.48H338.139V44.48ZM331.199 48.48V66.12H339.199V48.48H331.199ZM335.199 70.12H338.139V62.12H335.199V70.12ZM359.973 60.24V56.24H355.973V60.24H359.973ZM359.973 66.12H355.973V70.12H359.973V66.12ZM371.733 66.12H375.733V62.12H371.733V66.12ZM371.733 72V76H375.733V72H371.733ZM351.153 72H347.153V76H351.153V72ZM351.153 42.6V38.6H347.153V42.6H351.153ZM371.733 42.6H375.733V38.6H371.733V42.6ZM371.733 48.48V52.48H375.733V48.48H371.733ZM359.973 48.48V44.48H355.973V48.48H359.973ZM359.973 54.36H355.973V58.36H359.973V54.36ZM368.793 54.36H372.793V50.36H368.793V54.36ZM368.793 60.24V64.24H372.793V60.24H368.793ZM355.973 60.24V66.12H363.973V60.24H355.973ZM359.973 70.12H371.733V62.12H359.973V70.12ZM367.733 66.12V72H375.733V66.12H367.733ZM371.733 68H351.153V76H371.733V68ZM355.153 72V42.6H347.153V72H355.153ZM351.153 46.6H371.733V38.6H351.153V46.6ZM367.733 42.6V48.48H375.733V42.6H367.733ZM371.733 44.48H359.973V52.48H371.733V44.48ZM355.973 48.48V54.36H363.973V48.48H355.973ZM359.973 58.36H368.793V50.36H359.973V58.36ZM364.793 54.36V60.24H372.793V54.36H364.793ZM368.793 56.24H359.973V64.24H368.793V56.24ZM375.926 60.24H371.926V64.24H375.926V60.24ZM375.926 42.6V38.6H371.926V42.6H375.926ZM396.506 42.6H400.506V38.6H396.506V42.6ZM396.506 48.48V52.48H400.506V48.48H396.506ZM384.746 48.48V44.48H380.746V48.48H384.746ZM384.746 54.36H380.746V58.36H384.746V54.36ZM396.506 54.36H400.506V50.36H396.506V54.36ZM396.506 72V76H400.506V72H396.506ZM375.926 72H371.926V76H375.926V72ZM375.926 66.12V62.12H371.926V66.12H375.926ZM387.686 66.12V70.12H391.686V66.12H387.686ZM387.686 60.24H391.686V56.24H387.686V60.24ZM379.926 60.24V42.6H371.926V60.24H379.926ZM375.926 46.6H396.506V38.6H375.926V46.6ZM392.506 42.6V48.48H400.506V42.6H392.506ZM396.506 44.48H384.746V52.48H396.506V44.48ZM380.746 48.48V54.36H388.746V48.48H380.746ZM384.746 58.36H396.506V50.36H384.746V58.36ZM392.506 54.36V72H400.506V54.36H392.506ZM396.506 68H375.926V76H396.506V68ZM379.926 72V66.12H371.926V72H379.926ZM375.926 70.12H387.686V62.12H375.926V70.12ZM391.686 66.12V60.24H383.686V66.12H391.686ZM387.686 56.24H375.926V64.24H387.686V56.24Z" fill="#3526E0" mask="url(#path-1-outside-1_8_34)"/>
</svg>
